<svg width="24" height="24" viewBox="0 0 24 24" fill="none" xmlns="http://www.w3.org/2000/svg">
<path fill-rule="evenodd" clip-rule="evenodd" d="M13.803 5.33301C13.803 3.49301 15.303 2.00001 17.151 2.00001C17.5897 1.99896 18.0244 2.08433 18.4302 2.25126C18.8359 2.41819 19.2048 2.66341 19.5158 2.97291C19.8268 3.2824 20.0738 3.65012 20.2426 4.05507C20.4115 4.46002 20.499 4.89426 20.5 5.33301C20.5 7.17401 19 8.66701 17.151 8.66701C16.7076 8.66756 16.2685 8.57996 15.8592 8.40932C15.45 8.23868 15.0787 7.98839 14.767 7.67301L10.132 10.829C10.2611 11.472 10.1978 12.1388 9.95 12.746L15.032 16.086C15.6306 15.5978 16.3796 15.3318 17.152 15.333C17.5907 15.3321 18.0254 15.4176 18.4311 15.5846C18.8368 15.7517 19.2056 15.997 19.5165 16.3066C19.8274 16.6162 20.0743 16.984 20.243 17.389C20.4118 17.794 20.4991 18.2283 20.5 18.667C20.5 20.507 19 22 17.151 22C16.2651 22.0019 15.4147 21.6518 14.7869 21.0268C14.159 20.4017 13.8051 19.5529 13.803 18.667C13.8022 18.1996 13.9007 17.7374 14.092 17.311L9.05 14C8.43941 14.5309 7.65712 14.8226 6.848 14.821C6.40922 14.8221 5.97453 14.7366 5.56877 14.5696C5.16301 14.4026 4.79413 14.1573 4.48321 13.8477C4.17229 13.5381 3.92543 13.1702 3.75673 12.7652C3.58802 12.3601 3.50079 11.9258 3.5 11.487C3.50092 11.0483 3.58825 10.6141 3.75701 10.2091C3.92578 9.80421 4.17266 9.43648 4.48356 9.12697C4.79447 8.81746 5.1633 8.57223 5.569 8.40528C5.97469 8.23834 6.4093 8.15296 6.848 8.15401C7.912 8.15401 8.858 8.64701 9.471 9.41501L13.964 6.35601C13.8571 6.02554 13.8028 5.68034 13.803 5.33301Z" fill="#85B6FF"/>
</svg>
